<svg id="Layer_1" data-name="Layer 1" xmlns="http://www.w3.org/2000/svg" viewBox="0 0 512 370.68"><defs><style>.cls-1{fill:#fff;}</style></defs><title>subtitles</title><path class="cls-1" d="M407,0H105A105.12,105.12,0,0,0,0,105V265.68a105.12,105.12,0,0,0,105,105H407a105.12,105.12,0,0,0,105-105V105A105.12,105.12,0,0,0,407,0ZM112.2,117.31h45.72a15,15,0,1,1,0,30H112.2a15,15,0,1,1,0-30Zm0,83a15,15,0,0,1,0-30H309.31a15,15,0,0,1,0,30Zm60.72,38a15,15,0,0,1-15,15H112.2a15,15,0,1,1,0-30h45.72A15,15,0,0,1,172.92,238.36Zm29.77-15H399.8a15,15,0,1,1,0,30H202.69a15,15,0,0,1,0-30Zm136.39-38a15,15,0,0,1,15-15H399.8a15,15,0,0,1,0,30H354.08A15,15,0,0,1,339.08,185.34Zm60.72-38H202.69a15,15,0,0,1,0-30H399.8a15,15,0,0,1,0,30Z" transform="translate(0 0)"/></svg>