<?xml version="1.0"?>
<svg xmlns="http://www.w3.org/2000/svg" xmlns:xlink="http://www.w3.org/1999/xlink" xmlns:svgjs="http://svgjs.com/svgjs" version="1.1" width="512" height="512" x="0" y="0" viewBox="0 0 512 512" style="enable-background:new 0 0 512 512" xml:space="preserve" class=""><g><path xmlns="http://www.w3.org/2000/svg" d="m407 0h-302c-57.898438 0-105 47.101562-105 105v160.679688c0 57.894531 47.101562 105 105 105h302c57.898438 0 105-47.105469 105-105v-160.679688c0-57.898438-47.101562-105-105-105zm-294.804688 117.316406h45.722657c8.285156 0 15 6.714844 15 15s-6.714844 15-15 15h-45.722657c-8.285156 0-15-6.714844-15-15s6.714844-15 15-15zm0 83.023438c-8.285156 0-15-6.71875-15-15 0-8.285156 6.714844-15 15-15h197.113282c8.285156 0 15 6.714844 15 15 0 8.28125-6.714844 15-15 15zm60.722657 38.019531c0 8.285156-6.714844 15-15 15h-45.722657c-8.285156 0-15-6.714844-15-15 0-8.28125 6.714844-15 15-15h45.722657c8.285156 0 15 6.71875 15 15zm29.773437-15h197.113282c8.285156 0 15 6.71875 15 15 0 8.285156-6.714844 15-15 15h-197.113282c-8.285156 0-15-6.714844-15-15 0-8.28125 6.714844-15 15-15zm136.390625-38.019531c0-8.285156 6.714844-15 15-15h45.722657c8.285156 0 15 6.714844 15 15 0 8.28125-6.714844 15-15 15h-45.722657c-8.285156 0-15-6.71875-15-15zm60.722657-38.023438h-197.113282c-8.285156 0-15-6.714844-15-15s6.714844-15 15-15h197.113282c8.285156 0 15 6.714844 15 15s-6.714844 15-15 15zm0 0" fill="#ffffff" data-original="#000000" style="" class=""/></g></svg>
